<svg xmlns="http://www.w3.org/2000/svg" viewBox="0 0 100 100" preserveAspectRatio="xMidYMid" width="198" height="198" style="shape-rendering: auto; display: block; background: transparent;" xmlns:xlink="http://www.w3.org/1999/xlink"><g><g transform="rotate(0 50 50)">
  <rect x="47" y="28" rx="2.5" ry="2.5" width="6" height="10" fill="#aa1122">
    <animate attributeName="opacity" values="1;0" keyTimes="0;1" dur="2s" begin="-1.7777777777777777s" repeatCount="indefinite"></animate>
  </rect>
</g><g transform="rotate(40 50 50)">
  <rect x="47" y="28" rx="2.5" ry="2.5" width="6" height="10" fill="#aa1122">
    <animate attributeName="opacity" values="1;0" keyTimes="0;1" dur="2s" begin="-1.5555555555555556s" repeatCount="indefinite"></animate>
  </rect>
</g><g transform="rotate(80 50 50)">
  <rect x="47" y="28" rx="2.5" ry="2.5" width="6" height="10" fill="#aa1122">
    <animate attributeName="opacity" values="1;0" keyTimes="0;1" dur="2s" begin="-1.3333333333333333s" repeatCount="indefinite"></animate>
  </rect>
</g><g transform="rotate(120 50 50)">
  <rect x="47" y="28" rx="2.5" ry="2.5" width="6" height="10" fill="#aa1122">
    <animate attributeName="opacity" values="1;0" keyTimes="0;1" dur="2s" begin="-1.1111111111111112s" repeatCount="indefinite"></animate>
  </rect>
</g><g transform="rotate(160 50 50)">
  <rect x="47" y="28" rx="2.5" ry="2.5" width="6" height="10" fill="#aa1122">
    <animate attributeName="opacity" values="1;0" keyTimes="0;1" dur="2s" begin="-0.8888888888888888s" repeatCount="indefinite"></animate>
  </rect>
</g><g transform="rotate(200 50 50)">
  <rect x="47" y="28" rx="2.5" ry="2.5" width="6" height="10" fill="#aa1122">
    <animate attributeName="opacity" values="1;0" keyTimes="0;1" dur="2s" begin="-0.6666666666666666s" repeatCount="indefinite"></animate>
  </rect>
</g><g transform="rotate(240 50 50)">
  <rect x="47" y="28" rx="2.5" ry="2.5" width="6" height="10" fill="#aa1122">
    <animate attributeName="opacity" values="1;0" keyTimes="0;1" dur="2s" begin="-0.4444444444444444s" repeatCount="indefinite"></animate>
  </rect>
</g><g transform="rotate(280 50 50)">
  <rect x="47" y="28" rx="2.5" ry="2.5" width="6" height="10" fill="#aa1122">
    <animate attributeName="opacity" values="1;0" keyTimes="0;1" dur="2s" begin="-0.2222222222222222s" repeatCount="indefinite"></animate>
  </rect>
</g><g transform="rotate(320 50 50)">
  <rect x="47" y="28" rx="2.5" ry="2.5" width="6" height="10" fill="#aa1122">
    <animate attributeName="opacity" values="1;0" keyTimes="0;1" dur="2s" begin="0s" repeatCount="indefinite"></animate>
  </rect>
</g><g></g></g><!-- [ldio] generated by https://loading.io --></svg>